<svg xmlns="http://www.w3.org/2000/svg" version="1.1" xmlns:xlink="http://www.w3.org/1999/xlink" xmlns:svgjs="http://svgjs.dev/svgjs" width="1500" height="1500" viewBox="0 0 1500 1500"><rect width="1500" height="1500" fill="#ffffff"></rect><g transform="matrix(0.6666666666666666,0,0,0.6666666666666666,249.39393939393938,505.9955857747888)"><svg viewBox="0 0 396 251" data-background-color="#ffffff" preserveAspectRatio="xMidYMid meet" height="950" width="1500" xmlns="http://www.w3.org/2000/svg" xmlns:xlink="http://www.w3.org/1999/xlink"><g id="tight-bounds" transform="matrix(1,0,0,1,0.2400000000000091,3.818702420320591)"><svg viewBox="0 0 395.52 247.2" height="247.2" width="395.52"><g><svg></svg></g><g><svg viewBox="0 0 395.52 247.2" height="247.2" width="395.52"><mask id="9c19fbcb-de3b-4ab8-910e-6383cbc39d28"><rect width="640" height="400" fill="white"></rect><g transform="matrix(1,0,0,1,44.16,87.36053554351291)"><svg viewBox="0 0 307.2 72.47892891297417" height="72.47892891297417" width="307.2"><g><svg viewBox="0 0 307.2 72.47892891297417" height="72.47892891297417" width="307.2"><g><svg viewBox="0 0 307.2 72.47892891297417" height="72.47892891297417" width="307.2"><g><svg viewBox="0 0 307.2 72.47892891297417" height="72.47892891297417" width="307.2"><g id="SvgjsG2317"><svg viewBox="0 0 307.2 72.47892891297417" height="72.47892891297417" width="307.2" id="SvgjsSvg2316"><g><svg viewBox="0 0 307.2 72.47892891297417" height="72.47892891297417" width="307.2"><g transform="matrix(1,0,0,1,0,0)"><svg width="307.2" viewBox="-2.9699999999999998 -41.6 197.04 47.26" height="72.47892891297417" data-palette-color="#3d3839"><path d="M15.33-9.47L15.33-9.47Q15.41-9.06 15.48-8.85 15.55-8.64 15.73-8.4 15.92-8.15 16.25-8.06 16.58-7.96 17.09-7.96L17.09-7.96Q17.75-7.96 18.26-8.2 18.77-8.45 19.12-8.78 19.46-9.11 19.71-9.73 19.97-10.35 20.1-10.79 20.24-11.23 20.35-12.04 20.46-12.84 20.48-13.21 20.51-13.57 20.56-14.36L20.56-14.36Q17.94-12.79 14.45-12.79L14.45-12.79Q12.45-12.79 10.57-13.18 8.69-13.57 6.95-14.45 5.2-15.33 3.89-16.6 2.59-17.87 1.81-19.79 1.03-21.7 1.03-24.02L1.03-24.02Q1.03-26.86 1.99-29.17 2.95-31.49 4.57-33.03 6.18-34.57 8.33-35.62 10.47-36.67 12.74-37.13 15.01-37.6 17.38-37.6L17.38-37.6Q21.34-37.6 24.56-36.23 27.78-34.86 29.92-32.41 32.06-29.96 33.22-26.55 34.38-23.14 34.38-19.09L34.38-19.09Q34.38-9.91 30.62-4.69L30.62-4.69Q29.32-2.76 27.36-1.43 25.39-0.1 23.13 0.54 20.87 1.17 18.93 1.42 16.99 1.66 14.94 1.66L14.94 1.66Q9.42 1.66 6.05-1.27L6.05-1.27Q4.27-2.61 3.41-4.83 2.54-7.06 2.54-9.52L2.54-9.52 3.42-10.6 14.45-10.6Q14.87-10.6 15.1-10.25 15.33-9.91 15.33-9.47ZM12.7-24.12L12.7-24.12Q12.89-21.85 13.88-20.64 14.87-19.43 16.89-19.43L16.89-19.43Q20.8-19.43 20.8-24.32L20.8-24.32Q20.8-25.42 20.64-26.27 20.48-27.12 20.08-27.92 19.68-28.71 18.87-29.15 18.07-29.59 16.89-29.59L16.89-29.59Q15.75-29.59 14.89-29.11 14.04-28.64 13.57-27.82 13.11-27 12.9-26.09 12.7-25.17 12.7-24.12ZM75.58-0.98L53.17-0.98Q53.1-1.07 52.94-1.2 52.78-1.32 52.58-1.66L52.58-1.66 52.58-12.21Q52.58-14.28 52.75-18.58 52.92-22.88 52.92-25.1L52.92-25.1Q52.92-25.59 52.83-27.17 52.73-28.76 52.73-29.69L52.73-29.69Q52.73-33.13 53.56-33.89L53.56-33.89Q58.64-33.79 61.13-33.79L61.13-33.79 63.47-33.79Q64.3-33.79 64.74-33.74L64.74-33.74Q64.79-33.79 64.99-33.79L64.99-33.79Q65.03-33.79 65.41-33.74 65.79-33.69 66.01-33.69L66.01-33.69Q66.62-33.62 67.04-32.67L67.04-32.67 67.04-32.32Q67.04-32.06 67.01-31.54 66.99-31.03 66.99-30.76L66.99-30.76 66.99-29.69Q66.96-29.57 66.68-29.26 66.4-28.96 66.4-28.76L66.4-28.76 66.4-10.94 76.75-10.94Q77.14-10.94 77.34-10.91 77.53-10.89 77.73-10.69 77.92-10.5 77.92-10.11L77.92-10.11 77.92-1.95Q77.73-0.98 75.58-0.98L75.58-0.98ZM93.21-0.93L79.83-0.93 79.83-33.01Q79.85-33.2 80.22-33.36 80.58-33.52 80.66-33.59L80.66-33.59 93.79-33.59 93.79-1.81Q93.67-1.29 93.56-1.11 93.45-0.93 93.21-0.93L93.21-0.93ZM115.3-18.8L114.91-21.48Q115.08-22.41 115.85-25.04 116.62-27.66 116.76-29.2L116.76-29.2 116.76-30.91Q116.76-30.96 116.82-31.32 116.88-31.69 116.9-31.76 116.91-31.84 116.97-32.14 117.03-32.45 117.09-32.54 117.15-32.64 117.26-32.86 117.37-33.08 117.49-33.17 117.62-33.25 117.8-33.37 117.98-33.5 118.22-33.54 118.45-33.59 118.72-33.59L118.72-33.59 129.85-33.59Q129.9-33.57 130.14-33.4 130.39-33.23 130.54-33.11 130.7-32.98 130.73-32.91L130.73-32.91 122.55-3.49Q122.28-2.47 121.88-1.77 121.47-1.07 120.96-1.07L120.96-1.07 104.26-1.07Q103.87-2.64 103.36-4.76 102.85-6.88 102.33-9 101.82-11.11 101.43-12.7L101.43-12.7 95.5-32.86Q95.5-33.42 96.3-33.59L96.3-33.59 96.3-33.69Q97.77-33.69 100.73-33.74 103.7-33.79 105.04-33.79L105.04-33.79 109.05-33.79Q109.22-33.79 109.28-33.73 109.34-33.67 109.43-33.48 109.51-33.3 109.66-33.15L109.66-33.15 113.15-12.89 115.3-18.8ZM132.26-1.81L132.26-31.54Q132.26-33.01 132.38-33.25L132.38-33.25Q132.6-33.59 133.09-33.59L133.09-33.59 133.68-33.59Q134.07-33.59 134.22-33.54L134.22-33.54 135.49-33.54Q137.95-33.54 142.94-33.67 147.94-33.79 150.43-33.79L150.43-33.79 156.92-33.79Q157.56-33.72 157.56-33.15L157.56-33.15 157.56-25Q157.53-24.85 157.47-24.74 157.41-24.63 157.37-24.6 157.34-24.56 157.14-24.43 156.95-24.29 156.87-24.22L156.87-24.22 145.54-24.22 145.54-21.19 146.62-21.19Q148.03-21.19 150.94-21.29 153.84-21.39 155.41-21.39L155.41-21.39Q156.09-21.39 156.34-21.12 156.58-20.85 156.58-20.36L156.58-20.36Q156.58-20.24 156.53-19.95 156.48-19.65 156.48-19.53L156.48-19.53 156.48-18.6Q156.48-18.51 156.51-18.2 156.53-17.9 156.53-17.68L156.53-17.68 156.53-16.99Q156.53-16.46 156.58-15.92 156.63-15.38 156.63-14.99L156.63-14.99 156.63-14.36Q156.51-14.06 156.43-13.96 156.36-13.87 156.19-13.87L156.19-13.87 156.19-13.92Q155.29-13.92 153.08-13.79 150.87-13.67 149.55-13.67L149.55-13.67 145.64-13.67 145.64-10.55Q145.84-10.55 146.23-10.52 146.62-10.5 146.81-10.5L146.81-10.5Q147.91-10.5 150.06-10.57 152.21-10.64 153.16-10.64L153.16-10.64 156.29-10.64Q157.56-10.64 157.9-10.35L157.9-10.35Q158.02-10.21 158.09-10.06L158.09-10.06 158.09-2.25Q158.09-1.73 157.9-1.46 157.7-1.2 157.17-1.17L157.17-1.17 133-1.17 132.26-1.81ZM179.77-24.12L179.77-24.12Q179.11-24.12 178.7-24.32 178.28-24.51 178.04-24.8 177.79-25.1 177.49-25.39 177.18-25.68 176.52-25.88 175.86-26.07 174.84-26.07L174.84-26.07Q174.52-26.07 174.07-26.01 173.62-25.95 173.08-25.68 172.54-25.42 172.54-25L172.54-25Q172.54-24.54 173-24.21 173.45-23.88 174.02-23.74 174.59-23.61 175.31-23.43 176.03-23.24 176.33-23.1L176.33-23.1 179.92-22.22Q181.5-21.78 182.77-21.29 184.04-20.8 185.47-19.96 186.9-19.12 187.85-18.09 188.8-17.07 189.44-15.52 190.07-13.96 190.07-12.11L190.07-12.11Q190.07-9.86 189.49-8.11L189.49-8.11 189.49-8.15Q188.97-6.59 188.05-5.36 187.12-4.13 185.85-3.31 184.58-2.49 183.29-1.94 181.99-1.39 180.3-1.06 178.6-0.73 177.27-0.57 175.94-0.42 174.2-0.29L174.2-0.29Q166.51-0.68 163.9-2.73L163.9-2.73 163.9-3.03Q161.68-4.69 160.62-6.64 159.56-8.59 159.36-11.04L159.36-11.04Q159.36-11.62 159.9-11.62L159.9-11.62Q160.04-11.62 160.34-11.6 160.63-11.57 160.78-11.57L160.78-11.57 163.27-11.57Q163.61-11.62 164.24-11.62L164.24-11.62 164.88-11.62Q165.07-11.62 165.22-11.57L165.22-11.57Q166.64-11.62 170.05-11.62L170.05-11.62 171.18-11.62Q171.66-11.62 171.93-11.33 172.2-11.04 172.36-10.61 172.52-10.18 172.73-9.75 172.93-9.33 173.47-9.03 174.01-8.74 174.89-8.74L174.89-8.74Q175.84-8.74 176.61-9.24 177.38-9.74 177.38-10.69L177.38-10.69Q177.38-11.13 176.96-11.52 176.55-11.91 175.72-12.23 174.89-12.55 174.24-12.74 173.59-12.94 172.49-13.21 171.4-13.48 171.08-13.57L171.08-13.57 169.61-13.57Q164.32-15.14 161.98-17.54 159.65-19.95 159.65-23.63L159.65-23.63Q159.65-26.07 160.57-28.03 161.48-29.98 162.99-31.23 164.49-32.47 166.51-33.31 168.54-34.16 170.64-34.51 172.74-34.86 174.99-34.86L174.99-34.86Q178.96-34.86 182.37-33.53 185.78-32.2 187.53-30.08L187.53-30.08Q188.17-29.44 188.56-28.47 188.95-27.49 189.06-26.92 189.17-26.34 189.34-25L189.34-25 188.66-24.02 184.51-24.02Q183.82-24.02 182.24-24.07 180.65-24.12 179.77-24.12Z" opacity="1" transform="matrix(1,0,0,1,0,0)" fill="black" class="wordmark-text-0" id="SvgjsPath2315" stroke-width="7" stroke="black" stroke-linejoin="round"></path></svg></g></svg></g></svg></g></svg></g><g></g></svg></g></svg></g></svg></g></mask><g transform="matrix(1,0,0,1,44.16,87.36053554351291)"><svg viewBox="0 0 307.2 72.47892891297417" height="72.47892891297417" width="307.2"><g><svg viewBox="0 0 307.2 72.47892891297417" height="72.47892891297417" width="307.2"><g><svg viewBox="0 0 307.2 72.47892891297417" height="72.47892891297417" width="307.2"><g><svg viewBox="0 0 307.2 72.47892891297417" height="72.47892891297417" width="307.2"><g id="textblocktransform"><svg viewBox="0 0 307.2 72.47892891297417" height="72.47892891297417" width="307.2" id="textblock"><g><svg viewBox="0 0 307.2 72.47892891297417" height="72.47892891297417" width="307.2"><g transform="matrix(1,0,0,1,0,0)"><svg width="307.2" viewBox="-2.9699999999999998 -41.6 197.04 47.26" height="72.47892891297417" data-palette-color="#3d3839"><path d="M15.33-9.47L15.33-9.47Q15.41-9.06 15.48-8.85 15.55-8.64 15.73-8.4 15.92-8.15 16.25-8.06 16.58-7.96 17.09-7.96L17.09-7.96Q17.75-7.96 18.26-8.2 18.77-8.45 19.12-8.78 19.46-9.11 19.71-9.73 19.97-10.35 20.1-10.79 20.24-11.23 20.35-12.04 20.46-12.84 20.48-13.21 20.51-13.57 20.56-14.36L20.56-14.36Q17.94-12.79 14.45-12.79L14.45-12.79Q12.45-12.79 10.57-13.18 8.69-13.57 6.95-14.45 5.2-15.33 3.89-16.6 2.59-17.87 1.81-19.79 1.03-21.7 1.03-24.02L1.03-24.02Q1.03-26.86 1.99-29.17 2.95-31.49 4.57-33.03 6.18-34.57 8.33-35.62 10.47-36.67 12.74-37.13 15.01-37.6 17.38-37.6L17.38-37.6Q21.34-37.6 24.56-36.23 27.78-34.86 29.92-32.41 32.06-29.96 33.22-26.55 34.38-23.14 34.38-19.09L34.38-19.09Q34.38-9.91 30.62-4.69L30.62-4.69Q29.32-2.76 27.36-1.43 25.39-0.1 23.13 0.54 20.87 1.17 18.93 1.42 16.99 1.66 14.94 1.66L14.94 1.66Q9.42 1.66 6.05-1.27L6.05-1.27Q4.27-2.61 3.41-4.83 2.54-7.06 2.54-9.52L2.54-9.52 3.42-10.6 14.45-10.6Q14.87-10.6 15.1-10.25 15.33-9.91 15.33-9.47ZM12.7-24.12L12.7-24.12Q12.89-21.85 13.88-20.64 14.87-19.43 16.89-19.43L16.89-19.43Q20.8-19.43 20.8-24.32L20.8-24.32Q20.8-25.42 20.64-26.27 20.48-27.12 20.08-27.92 19.68-28.71 18.87-29.15 18.07-29.59 16.89-29.59L16.89-29.59Q15.75-29.59 14.89-29.11 14.04-28.64 13.57-27.82 13.11-27 12.9-26.09 12.7-25.17 12.7-24.12ZM75.58-0.98L53.17-0.98Q53.1-1.07 52.94-1.2 52.78-1.32 52.58-1.66L52.58-1.66 52.58-12.21Q52.58-14.28 52.75-18.58 52.92-22.88 52.92-25.1L52.92-25.1Q52.92-25.59 52.83-27.17 52.73-28.76 52.73-29.69L52.73-29.69Q52.73-33.13 53.56-33.89L53.56-33.89Q58.64-33.79 61.13-33.79L61.13-33.79 63.47-33.79Q64.3-33.79 64.74-33.74L64.74-33.74Q64.79-33.79 64.99-33.79L64.99-33.79Q65.03-33.79 65.41-33.74 65.79-33.69 66.01-33.69L66.01-33.69Q66.62-33.62 67.04-32.67L67.04-32.67 67.04-32.32Q67.04-32.06 67.01-31.54 66.99-31.03 66.99-30.76L66.99-30.76 66.99-29.69Q66.96-29.57 66.68-29.26 66.4-28.96 66.4-28.76L66.4-28.76 66.4-10.94 76.75-10.94Q77.14-10.94 77.34-10.91 77.53-10.89 77.73-10.69 77.92-10.5 77.92-10.11L77.92-10.11 77.92-1.95Q77.73-0.98 75.58-0.98L75.58-0.98ZM93.21-0.93L79.83-0.93 79.83-33.01Q79.85-33.2 80.22-33.36 80.58-33.52 80.66-33.59L80.66-33.59 93.79-33.59 93.79-1.81Q93.67-1.29 93.56-1.11 93.45-0.93 93.21-0.93L93.21-0.93ZM115.3-18.8L114.91-21.48Q115.08-22.41 115.85-25.04 116.62-27.66 116.76-29.2L116.76-29.2 116.76-30.91Q116.76-30.96 116.82-31.32 116.88-31.69 116.9-31.76 116.91-31.84 116.97-32.14 117.03-32.45 117.09-32.54 117.15-32.64 117.26-32.86 117.37-33.08 117.49-33.17 117.62-33.25 117.8-33.37 117.98-33.5 118.22-33.54 118.45-33.59 118.72-33.59L118.72-33.59 129.85-33.59Q129.9-33.57 130.14-33.4 130.39-33.23 130.54-33.11 130.7-32.98 130.73-32.91L130.73-32.91 122.55-3.49Q122.28-2.47 121.88-1.77 121.47-1.07 120.96-1.07L120.96-1.07 104.26-1.07Q103.87-2.64 103.36-4.76 102.85-6.88 102.33-9 101.82-11.11 101.43-12.7L101.43-12.7 95.5-32.86Q95.5-33.42 96.3-33.59L96.3-33.59 96.3-33.69Q97.77-33.69 100.73-33.74 103.7-33.79 105.04-33.79L105.04-33.79 109.05-33.79Q109.22-33.79 109.28-33.73 109.34-33.67 109.43-33.48 109.51-33.3 109.66-33.15L109.66-33.15 113.15-12.89 115.3-18.8ZM132.26-1.81L132.26-31.54Q132.26-33.01 132.38-33.25L132.38-33.25Q132.6-33.59 133.09-33.59L133.09-33.59 133.68-33.59Q134.07-33.59 134.22-33.54L134.22-33.54 135.49-33.54Q137.95-33.54 142.94-33.67 147.94-33.79 150.43-33.79L150.43-33.79 156.92-33.79Q157.56-33.72 157.56-33.15L157.56-33.15 157.56-25Q157.53-24.85 157.47-24.74 157.41-24.63 157.37-24.6 157.34-24.56 157.14-24.43 156.95-24.29 156.87-24.22L156.87-24.22 145.54-24.22 145.54-21.19 146.62-21.19Q148.03-21.19 150.94-21.29 153.84-21.39 155.41-21.39L155.41-21.39Q156.09-21.39 156.34-21.12 156.58-20.85 156.58-20.36L156.58-20.36Q156.58-20.24 156.53-19.95 156.48-19.65 156.48-19.53L156.48-19.53 156.48-18.6Q156.48-18.51 156.51-18.2 156.53-17.9 156.53-17.68L156.53-17.68 156.53-16.99Q156.53-16.46 156.58-15.92 156.63-15.38 156.63-14.99L156.63-14.99 156.63-14.36Q156.51-14.06 156.43-13.96 156.36-13.87 156.19-13.87L156.19-13.87 156.19-13.92Q155.29-13.92 153.08-13.79 150.87-13.67 149.55-13.67L149.55-13.67 145.64-13.67 145.64-10.55Q145.84-10.55 146.23-10.52 146.62-10.5 146.81-10.5L146.81-10.5Q147.91-10.5 150.06-10.57 152.21-10.64 153.16-10.64L153.16-10.64 156.29-10.64Q157.56-10.64 157.9-10.35L157.9-10.35Q158.02-10.21 158.09-10.06L158.09-10.06 158.09-2.25Q158.09-1.73 157.9-1.46 157.7-1.2 157.17-1.17L157.17-1.17 133-1.17 132.26-1.81ZM179.77-24.12L179.77-24.12Q179.11-24.12 178.7-24.32 178.28-24.51 178.04-24.8 177.79-25.1 177.49-25.39 177.18-25.68 176.52-25.88 175.86-26.07 174.84-26.07L174.84-26.07Q174.52-26.07 174.07-26.01 173.62-25.95 173.08-25.68 172.54-25.42 172.54-25L172.54-25Q172.54-24.54 173-24.21 173.45-23.88 174.02-23.74 174.59-23.61 175.31-23.43 176.03-23.24 176.33-23.1L176.33-23.1 179.92-22.22Q181.5-21.78 182.77-21.29 184.04-20.8 185.47-19.96 186.9-19.12 187.85-18.09 188.8-17.07 189.44-15.52 190.07-13.96 190.07-12.11L190.07-12.11Q190.07-9.86 189.49-8.11L189.49-8.11 189.49-8.15Q188.97-6.59 188.05-5.36 187.12-4.13 185.85-3.31 184.58-2.49 183.29-1.94 181.99-1.39 180.3-1.06 178.6-0.73 177.27-0.57 175.94-0.42 174.2-0.29L174.2-0.29Q166.51-0.68 163.9-2.73L163.9-2.73 163.9-3.03Q161.68-4.69 160.62-6.64 159.56-8.59 159.36-11.04L159.36-11.04Q159.36-11.62 159.9-11.62L159.9-11.62Q160.04-11.62 160.34-11.6 160.63-11.57 160.78-11.57L160.78-11.57 163.27-11.57Q163.61-11.62 164.24-11.62L164.24-11.62 164.88-11.62Q165.07-11.62 165.22-11.57L165.22-11.57Q166.64-11.62 170.05-11.62L170.05-11.62 171.18-11.62Q171.66-11.62 171.93-11.33 172.2-11.04 172.36-10.61 172.52-10.18 172.73-9.75 172.93-9.33 173.47-9.03 174.01-8.74 174.89-8.74L174.89-8.74Q175.84-8.74 176.61-9.24 177.38-9.74 177.38-10.69L177.38-10.69Q177.38-11.13 176.96-11.52 176.55-11.91 175.72-12.23 174.89-12.55 174.24-12.74 173.59-12.94 172.49-13.21 171.4-13.48 171.08-13.57L171.08-13.57 169.61-13.57Q164.32-15.14 161.98-17.54 159.65-19.95 159.65-23.63L159.65-23.63Q159.65-26.07 160.57-28.03 161.48-29.98 162.99-31.23 164.49-32.47 166.51-33.31 168.54-34.16 170.64-34.51 172.74-34.86 174.99-34.86L174.99-34.86Q178.96-34.86 182.37-33.53 185.78-32.2 187.53-30.08L187.53-30.08Q188.17-29.44 188.56-28.47 188.95-27.49 189.06-26.92 189.17-26.34 189.34-25L189.34-25 188.66-24.02 184.51-24.02Q183.82-24.02 182.24-24.07 180.65-24.12 179.77-24.12Z" opacity="1" transform="matrix(1,0,0,1,0,0)" fill="#000000" class="wordmark-text-0" data-fill-palette-color="primary" id="text-0"></path></svg></g></svg></g></svg></g></svg></g><g></g></svg></g></svg></g></svg></g><g mask="url(#9c19fbcb-de3b-4ab8-910e-6383cbc39d28)"><g transform="matrix(2.7177978881396356, 0, 0, 2.7177978881396356, 76.86229409128256, 1)"><svg xmlns="http://www.w3.org/2000/svg" data-name="Layer 1" viewBox="5.5 4.779898987322319 88.96739999417198 90.22010101267767" x="0" y="0" height="90.22010101267767" width="88.96739999417198" class="icon-none" data-fill-palette-color="accent" id="none"><g data-name="Group" fill="#ffc604" data-fill-palette-color="accent"><path data-name="Compound Path" d="M20.9 95L33.6 83.3l31.6 1.8a8.1 8.1 0 0 0 5.8-2L92.1 65a6.9 6.9 0 0 0 0.7-9.7h-0.1a7.1 7.1 0 0 0-9.9-0.8L66.6 68l-14.9 0.8-2.1-3.4 11-2.3a6.9 6.9 0 0 0 5.5-7.6v-0.2a7 7 0 0 0-7.3-6L35.4 50.9a8.1 8.1 0 0 0-4.7 1.7L5.5 72.7ZM33.1 55.8a4.2 4.2 0 0 1 2.5-0.9l23.5-1.5a2.9 2.9 0 0 1 3.1 2.5h0a2.9 2.9 0 0 1-2.3 3.3L43.2 62.6l6.3 10.3 18.6-1 0.5-0.4 16.8-14a3 3 0 0 1 4.3 0.4h0.1a2.9 2.9 0 0 1-0.3 4.1l-21 18.2a4.1 4.1 0 0 1-3 1L32.2 79.2 21.6 88.9 10.9 73.5Z" fill="#000000" data-fill-palette-color="accent"></path><path data-name="Compound Path" d="M24.4 29.1v12H42.3v4.1H69V41.1H87v-12a12.2 12.2 0 0 0-4.2-9.3 9.4 9.4 0 1 0-17.4-7.1 9.9 9.9 0 0 0-19.4 0 9.4 9.4 0 1 0-17.4 7.1A12.2 12.2 0 0 0 24.4 29.1ZM46 20.4l-0.6-0.6a9.4 9.4 0 0 0 0.8-2 9.9 9.9 0 0 0 0.7 1.8ZM65 41.2H46.3V29.5a9 9 0 0 1 3.1-6.8 9.9 9.9 0 0 0 12.6 0A8.9 8.9 0 0 1 65 29.5Zm0.3-20.8l-0.9-0.8a9.9 9.9 0 0 0 0.7-1.8 9.4 9.4 0 0 0 0.8 2ZM83 37.1H69V29.5a13 13 0 0 0-1.3-5.7l0.8-0.8a9.4 9.4 0 0 0 11.7 0A8.2 8.2 0 0 1 83 29.1Zm-8.6-27a5.4 5.4 0 1 1-5.4 5.4A5.4 5.4 0 0 1 74.4 10.1ZM55.7 9a6 6 0 1 1-6 6A6 6 0 0 1 55.7 9ZM37 10.1a5.4 5.4 0 1 1-5.4 5.4A5.4 5.4 0 0 1 37 10.1Zm-8.6 19a8.2 8.2 0 0 1 2.8-6.2 9.4 9.4 0 0 0 11.7 0l0.8 0.8a13 13 0 0 0-1.4 5.7v7.7H28.4Z" fill="#000000" data-fill-palette-color="accent"></path></g></svg></g></g></svg></g><defs></defs></svg><rect width="395.52" height="247.2" fill="none" stroke="none" visibility="hidden"></rect></g></svg></g></svg>